
<svg xmlns="http://www.w3.org/2000/svg" version="1.1" xmlns:xlink="http://www.w3.org/1999/xlink" preserveAspectRatio="none" x="0px" y="0px" width="200px" height="183px" viewBox="0 0 200 183">
<defs>
<g id="Layer0_0_FILL">
<path fill="#00FFCC" stroke="none" d="
M 18.3 271.5
Q 15.9 270.5 13.6 271.9 11.85 272.95 10.2 274.15 10.1 274.2 10.05 274.35 10 274.45 10 274.55
L 10 278.55
Q 10 278.7 10.1 278.85 10.45 279.4 10.8 280.1 11.2 280.8 11.5 281.6 11.55 281.75 11.75 281.85
L 11.75 281.9
Q 11.85 282 12 282.1 12.05 282.1 12.1 282.1 12.1 282.25 12.2 282.35 12.3 282.4 12.45 282.45 16.45 283.2 20.55 283.05 20.7 283.05 20.85 282.95 20.95 282.85 21 282.7 21 282.55 21.05 282.4 22.2 281.2 22.75 279.55 23.3 277.55 23 275.5 23 275.35 22.9 275.25 22.8 275.15 22.7 275.1
L 22.2 274.9
Q 20.75 272.45 18.3 271.5
M 18.55 230.5
Q 14.65 230 11.05 231.05 5.75 232.3 2.15 236.2 2 236.35 2 236.5 1.95 236.95 1.85 237.45
L 1.85 237.5
Q 1.65 239.15 0.25 240.15 0.1 240.2 0.05 240.35 0 240.45 0 240.55
L 0 250.55
Q 0 250.7 0.1 250.85 0.2 251 0.35 251.05
L 0.75 251.15 3.05 256.75
Q 3.1 256.85 3.2 256.95 3.25 257 3.4 257.05 3.7 257.1 3.95 257.3 4 257.3 4 257.35 5.95 258.5 8 259.75 10.1 261 12.5 261.45
L 12.55 261.45
Q 15.9 261.95 19.5 262.05 19.65 262.05 19.8 261.95 19.9 261.85 20 261.7
L 20.1 261.35 25.7 259
Q 25.8 258.95 25.9 258.9 25.95 258.8 26 258.7 26.05 258.35 26.25 258.15 27.5 256.4 28.7 254.65 29.95 252.7 30.3 250.55 31 246.05 31 241.55 31 241.35 30.9 241.25 30.75 241.1 30.6 241.05
L 30.35 241 29 236.45
Q 28.95 236.3 28.85 236.2 28.75 236.1 28.65 236.1 28.6 236.05 28.55 236.05 28.55 236 28.5 236 27.4 235.15 26.3 234.35 24.25 232.7 22 231.55
L 22 231.6
Q 20.35 230.6 18.55 230.5
M 83.55 18.1
Q 83.5 18.05 83.45 18.05 81.1 17.55 78.65 18.3 77.05 18.8 75.75 19.3 75.55 19.35 75.5 19.5 74.7 20.75 73.85 21.95 73 23.15 72.15 24.25 72 24.4 72 24.6 72.1 27.75 73.4 30.45
L 73.4 30.4
Q 74.35 32.5 76.2 33.95 76.3 34 76.4 34.05 77.7 34.35 79.05 34.7
L 79 34.7
Q 81.2 35.35 83.7 34.9 86.8 34.3 88.9 31.9 88.95 31.8 89 31.75 90.3 28.3 89.8 24.5 89.4 21.4 86.85 19.2 86.75 19.1 86.6 19.05 86.15 18.95 85.7 18.85 84.6 18.45 83.55 18.1
M 124.4 32.7
Q 124.2 32.25 124 31.9
L 124 31.95
Q 122.95 29.95 120.9 29.2
L 120.8 28.8
Q 120.75 28.7 120.7 28.65 120.6 28.55 120.5 28.5 119 27.85 117.5 27.3 116.65 26.95 115.85 26.75
L 115.8 26.7
Q 110.55 25.65 105.45 26.05 105.3 26.05 105.2 26.15 105.1 26.25 105.05 26.4
L 104.9 26.75 101.35 28.1
Q 101.2 28.15 101.1 28.3 101 28.4 101 28.55
L 101 28.75 96.15 33.2
Q 96 33.3 96 33.5 95.95 33.95 95.85 34.4
L 95.85 34.45
Q 95.5 36.5 94.1 38.25 94 38.35 94 38.55 94 40.05 94 41.55 94 43.6 94.3 45.55 94.4 46.55 94.9 47.55 96.1 49.85 97.75 52.1 97.9 52.4 98.05 52.75 98.05 52.85 98.15 52.95 101.6 56.1 105.95 57.4
L 106.05 57.7
Q 106.05 57.85 106.2 57.95 106.35 58.05 106.5 58.05 110.45 58.05 114.5 58.05 114.55 58.05 114.6 58.05 115.3 57.9 116 57.6 117.4 57.35 118.65 56.65 119.6 56.1 120.55 56.05 120.65 56.05 120.8 56 120.9 55.9 120.95 55.8 121.2 55.3 121.5 54.9
L 121.5 54.85
Q 122.3 53.35 123.75 52.45 123.8 52.35 123.9 52.25 123.95 52.15 123.95 52.05
L 124 50.8
Q 125.4 49.55 126.1 47.85 126.9 46.1 127.05 44.15 127.1 43.15 127.05 42.2 126.9 38.7 125.5 35.5 125.45 35.4 125.4 35.3 125.25 35.2 125.15 35.2
L 125 35.15
Q 124.95 33.75 124.4 32.7
M 362.9 293.8
Q 360.5 294.95 358.85 296.9 356.95 298.95 356.05 301.4 356 301.45 356 301.55 356 302.8 356 304.05 356 305.9 356.6 307.55
L 356.6 307.5
Q 357.4 310.1 358.05 312.7 358.05 312.75 358.1 312.85 358.15 312.95 358.25 313 359.35 313.65 360.6 314.25 361.75 314.85 362.95 315.35
L 363.05 315.7
Q 363.1 315.85 363.2 315.95 363.3 316.05 363.45 316.05 364.55 316.15 365.65 316.25 370.3 316.65 374.35 314.6 376.05 313.75 376.9 312.25 376.9 312.2 376.95 312.15
L 376.95 311.95
Q 377 311.95 377.05 311.95 377.15 311.95 377.2 311.95 377.5 311.95 377.55 311.55 378.05 310.5 378.65 309.55
L 378.65 309.6
Q 379.2 308.7 379.9 307.9 380 307.75 380 307.6 380.25 305.15 379.9 302.8 379.55 300.4 378.15 298.25 376.85 296.35 374.95 295.25
L 374.8 294.8
Q 374.75 294.7 374.7 294.65 374.6 294.55 374.5 294.5 371.5 293.1 368.25 293
L 368.2 293
Q 365.8 292.95 363.5 293.05 363.3 293.05 363.2 293.15 363.1 293.25 363.05 293.4
L 362.9 293.8
M 401.75 111.15
Q 401.65 111.05 401.5 111.05
L 391.5 111.05
Q 391.3 111.05 391.2 111.2 391.05 111.3 391 111.5
L 390.95 111.75
Q 387.75 113.15 385.2 115.15 385.1 115.2 385.05 115.3 385 115.4 385 115.5 384.95 115.95 384.85 116.45
L 384.85 116.5
Q 384.6 118.15 383.2 119.15 383.1 119.2 383.05 119.35 383 119.45 383 119.55
L 383 129.55
Q 383 129.7 383.1 129.85 383.2 130 383.35 130.05
L 383.75 130.15
Q 385.4 133.4 388.15 135.95 388.3 136.05 388.45 136.05 391.05 136.3 393.2 137.95 393.35 138.05 393.5 138.05
L 399.5 138.05
Q 399.7 138.05 399.85 137.95 399.95 137.8 400 137.65
L 400.05 137.4 404.65 136.05
Q 404.75 136 404.85 135.9 404.95 135.8 405 135.7 405.05 135.45 405.2 135.3
L 405.25 135.3
Q 406.5 133.75 407.65 132.2 408.95 130.5 409.3 128.5 410 124.65 410 120.55 410 120.4 409.9 120.25 409.8 120.1 409.65 120.1
L 409.3 119.95 408 116.4
Q 407.95 116.25 407.85 116.2 407.75 116.1 407.65 116.1
L 407.15 115.9
Q 405 112.95 401.75 111.15
M 381 93.5
Q 380.65 96.1 381.2 98.7 381.4 99.8 381.8 100.85
L 381.8 100.9
Q 381.9 101.25 382 101.65 382.05 101.85 382.2 101.95 384.9 103.95 388.1 104 388.8 104 389.6 103.95
L 389.7 103.95
Q 391.65 103.45 393.3 102 394 101.35 394.55 100.6
L 394.6 100.55
Q 394.8 100.15 394.95 99.6 395.5 96.5 394.5 93.6 394.25 92.9 394 92.35 393.95 92.25 393.95 92.15 393.95 92 393.9 91.9 393.8 91.8 393.7 91.75 390.85 90.05 387.45 90.1
L 387.4 90.1
Q 384.45 90.35 382.2 92.15 382.1 92.2 382.05 92.35 382 92.45 382 92.55
L 382 93.05 381.5 93.05
Q 381.3 93.05 381.2 93.2 381.05 93.3 381 93.5
M 338.95 38.3
Q 338.9 38.05 338.8 37.9 336.85 33.95 332.9 32.2
L 332.75 31.75
Q 332.7 31.6 332.6 31.5 327.1 26.9 320.95 23.25
L 320.8 22.75
Q 320.7 22.55 320.55 22.45
L 310.9 17.2 310.8 16.8
Q 310.75 16.7 310.7 16.65 310.6 16.55 310.55 16.5 307.6 15.1 304.7 13.7
L 304.65 13.7
Q 303.15 13.05 301.65 12.5 294.8 9.65 288.2 6.4 284.35 4.55 280 5 279.95 4.8 279.85 4.7 279.7 4.55 279.5 4.55 278.9 4.55 278.35 4.55 277.3 4.55 277 3.4 276.95 3.25 276.85 3.2 276.7 3.05 276.55 3.05 276.05 3 275.6 2.95 272.75 2.4 269.95 1.9 267.05 1.45 264.2 1.05
L 264.15 1.05
Q 261.2 0.75 258.3 0.5 255.3 0.3 252.3 0.1
L 252.25 0.1
Q 249.25 0.05 246.25 0 244.7 0 243.2 0 236.95 0.05 230.65 0.75 228.55 0.95 226.5 1.4 221.05 2.35 215.45 3.05 215.25 3.1 215.15 3.25 215 3.35 215 3.55
L 215 4.05 210.5 4.05
Q 210.3 4.05 210.2 4.2 210.05 4.3 210 4.5
L 209.95 4.7
Q 208.5 5.15 207.15 5.7 204.1 6.75 201.05 7.8 198 8.85 195.1 10.05 189.15 12.25 183.65 15 174.1 19.55 165.25 25.15 165.05 25.25 165.05 25.45
L 164.85 25.95 143.2 43.15
Q 143.1 43.2 143.05 43.35 143 43.45 143 43.55
L 143 44.2 142.6 44.35
Q 142.5 44.4 142.4 44.5 138.35 50.05 132.3 53.1 132.15 53.15 132.1 53.3 132 53.4 132 53.55
L 132 54.05 131.5 54.05
Q 131.3 54.05 131.15 54.2 131 54.35 131 54.55
L 131 55.2
Q 130.7 55.3 130.45 55.5 124.55 60.1 118.25 64.15 118.1 64.2 118.05 64.3 118 64.4 118 64.55
L 118 65.1
Q 117.95 65.1 117.95 65.15
L 117.85 65.15
Q 116.3 65.95 114.85 66.75
L 114.85 66.8
Q 112.3 68.2 109.8 69.55
L 109.75 69.55
Q 107.2 70.95 104.85 72.3 98.85 75.6 92.4 77.1 92.2 77.1 92.1 77.25 92 77.4 92 77.55
L 92 78.2
Q 90.25 78.7 88.5 79.2 85.55 80.1 82.65 81.05 81.15 81.5 79.7 81.95 74 84.1 68.35 86.1
L 68.4 86.1
Q 67.9 86.2 67.5 86.45
L 67.45 86.45
Q 63.9 89.2 59.4 90.05 59.25 90.1 59.15 90.25 59 90.35 59 90.55
L 59 91.2
Q 58.7 91.3 58.45 91.5 56.7 92.65 55.05 93.9 53.4 95.15 51.85 96.55
L 51.85 96.5
Q 50.2 97.8 48.7 99.2 47.1 100.55 45.65 102 44.15 103.4 42.75 104.9 41.3 106.4 40 108.05 38.6 109.55 37.3 111.2 36 112.8 34.8 114.5 33.55 116.15 32.4 117.95 31.25 119.7 30.15 121.45 29.05 123.3 28 125.15 26.9 127 25.95 129 25.45 129.95 24.95 130.9 23.05 134.9 21.45 139.05 20.6 141.15 20.1 143.4 19.4 145.9 19.2 148.5 19 150.3 19 152.05 18.8 152.05 18.65 152.2 18.5 152.35 18.5 152.55 18.5 153.05 18.55 153.65 18.7 156.25 17.1 158.25 17 158.4 17 158.55
L 17 158.6
Q 16.95 161.8 17 164.95 17 168 17.25 171 17.5 173.75 17.95 176.55 18.35 179.15 19 181.7 19.4 183.6 20.05 185.5 20.85 188.2 21.85 191 22.8 193.65 23.8 196.3 25.8 201.5 28.05 206.6 31.9 215.35 36.45 223.6 36.55 223.75 36.75 223.85
L 37.05 223.95
Q 37.1 224.75 37.2 225.6 37.35 227.55 37.5 229.55 37.65 231.55 37.8 233.55 37.9 235.5 37.95 237.55
L 37.95 237.6
Q 38.05 239.6 38.05 241.65 38.1 243.75 38.1 245.85 38.15 248 38.15 250.15 38.1 252.3 38.05 254.45 38.05 256 38 257.55 38 258.55 38 259.55 38 261.7 38 263.85 38 265.95 38 268.05 38 270.2 38 272.35 38 274.45 37.9 276.55 37.7 282.25 39.5 287.55 39.5 287.65 39.6 287.75 39.7 287.85 39.8 287.9
L 40.15 287.95
Q 41.85 292.4 43.7 296.65 44.65 298.8 45.85 300.85 47.2 303.2 48.05 305.7 48.05 305.8 48.1 305.9 51.05 309.5 54.45 312.6 57.9 315.6 61.25 318.45 64.05 320.75 67.3 322 68.7 323.15 70.3 324.25 75.65 328.05 82.3 329.05 82.75 329.55 83.35 329.95 85.95 331.65 89.2 331.15 89.25 331.15 89.3 331.25 90.2 332.75 92 332.65 92 332.8 92.15 332.9 92.25 333.05 92.45 333.05 95.1 333.25 97.8 333.45 100.15 333.8 102.55 334.2 104.45 334.6 106.4 335.05 108.6 335.5 110.85 336 110.9 336 110.95 336 112.5 336.1 114.15 336.25
L 114.2 336.25
Q 115.95 336.25 117.7 336.25
L 117.75 336.25
Q 119.1 336.15 120.5 336.05 122.55 336.05 124.5 336.05 126.45 336.05 128.4 336.05 130.35 336.05 132.3 336.05 134.25 336.05 136.2 336.05 138.1 336.05 140 336.05 141 336.05 142 336.05 145.95 336.05 149.8 336.05 151.7 336.05 153.6 336.1
L 153.65 336.1
Q 156.75 335.85 160 336.45
L 160 336.65
Q 160.05 336.8 160.15 336.9 160.25 337 160.45 337.05 163.25 337.45 166.15 337.85 168.75 338.4 171.35 339.15
L 171.4 339.15
Q 172.85 339.45 174.25 340.1 176.2 340.95 178.1 341.9 180 342.85 181.9 343.8
L 181.85 343.8
Q 182.75 344.3 183.75 344.8 188.6 347.25 193.25 350 196.15 351.85 199.3 353 201.9 355.1 204.7 357
L 204.65 357
Q 207.4 358.95 210.4 360.7
L 210.45 360.7
Q 210.85 360.9 211.25 361.1
L 211.2 361.1
Q 213.4 362.35 215.7 363.5
L 215.65 363.5
Q 217.9 364.75 220.35 365.85 222.15 366.6 223.95 367.4 226.7 368.6 229.6 369.7 238 372.95 247.1 374 247.2 374.25 247.35 374.5
L 247.35 374.55
Q 247.55 374.9 248 375.25 248.1 375.35 248.3 375.35 248.45 375.35 248.65 375.35 248.7 375.35 248.75 375.35 249.6 375.2 250.5 375.05 252.45 375.35 254.45 375.65 258.85 376.1 263 376.15 265.75 376.2 268.5 376.15 273.55 376.05 278.5 375.55 278.65 375.55 278.8 375.45 278.9 375.3 278.95 375.15
L 278.95 375.05
Q 280 375.05 281 375.05 282.8 375.05 284.5 374.6
L 284.55 374.6
Q 287.25 373.65 289.95 372.55 292.3 371.6 294.5 370.6 294.6 370.55 294.7 370.5 294.75 370.4 294.8 370.3
L 294.9 369.95 300.65 368.05
Q 300.8 368 300.9 367.9 302.15 366.45 303.55 365.1 305.1 363.65 306.75 362.4 306.9 362.3 306.95 362.15
L 306.95 361.9
Q 311.05 359.95 313.85 356.3 313.9 356.2 313.95 356.15
L 313.95 355.8
Q 315.85 353.75 317.75 351.55 319.7 349.2 321.5 347.05 323.15 345 323.95 342.8 326.9 339.05 329.55 335 330.8 332.95 332.2 330.95 334.1 328.4 334.95 325.8 338.9 321.4 340.75 315.6 340.9 315.15 341 314.7 341.5 313.95 341.95 313.2 343.05 311.65 344.15 310.05 345.2 308.4 346.25 306.75 347.3 305.05 348.3 303.4
L 348.3 303.45
Q 348.8 302.6 349.35 301.8
L 349.4 301.8
Q 351.55 298.6 353.6 295.25 354.55 293.6 355.65 292.05 357.1 290.1 357.95 287.85
L 364.85 280.35
Q 364.95 280.2 364.95 280.05
L 365 278.8
Q 365.7 278.15 366.45 277.6
L 366.5 277.6
Q 368.1 276.2 369.65 274.75 371.25 273.3 372.75 271.8 374.25 270.3 375.75 268.75
L 375.8 268.75
Q 376.6 267.85 377.5 267.1 378.5 266.2 379.45 265.3
L 379.45 265.25
Q 385.25 259.7 390.15 253.2
L 390.65 253.05
Q 390.75 253 390.85 252.95 390.9 252.85 390.95 252.75 392 250.3 393.2 247.95 394.35 245.75 395.6 243.55 395.8 243.2 395.95 242.8 396.35 242.25 396.7 241.75
L 396.75 241.75
Q 398.65 238.9 399.9 235.5 400.45 233.85 400.85 232.15 401.05 231.4 401.2 230.7
L 401.2 230.75
Q 401.95 227.55 402.5 224.4 403 221.25 402.95 218.05 402.95 214.85 402.4 211.8 401.85 208.55 401.25 205.4 400.75 202.95 400.2 200.5 399.3 196.8 397.65 193.45 396.7 191.4 395.8 189.4 394.7 187 393.5 184.75 392.3 182.45 391.05 180.25
L 391.05 180.3
Q 390.85 179.9 390.65 179.5 388.95 176.15 387.15 172.75
L 387.15 172.7
Q 385.9 170.4 384.75 168.1 382.95 164.55 381.25 161.1 380.65 159.9 380.15 158.75 379.6 157.55 379.1 156.35 378.55 155.1 378.05 153.9 377.5 152.65 376.95 151.4
L 377 151.45
Q 376.45 150.15 375.95 148.95 375.4 147.7 374.95 146.5 373.95 143.9 373.05 141.4 372.9 140.95 372.75 140.5 372 138.5 371.2 136.65
L 371.25 136.7
Q 370.2 134.15 370.05 131.55 369.95 130 369.9 128.55 369.8 126.2 369.65 123.9
L 369.65 123.85
Q 369.45 121.55 369.2 119.3 368.95 117.05 368.65 114.85 368.35 112.65 368.15 110.5 367.95 108.65 367.9 106.9 367.8 104.25 367.6 101.65 367.4 99.15 367.1 96.65 366.8 94.25 366.4 91.85 366.15 90.15 365.8 88.55 365.35 86.35 364.75 84.2
L 364.75 84.15
Q 364.1 82.05 363.35 80.05 362.55 78 361.7 76.05 360.85 74.2 360.15 72.3
L 360.15 72.25
Q 359.5 70.65 358.95 69.05 358.05 66.55 357.05 64.2 356.05 61.85 354.95 59.6 352.75 55.05 349.9 51.05 345.1 44.1 338.95 38.3
M 324.05 257.95
Q 324.75 262.9 324.55 268.05
L 310.1 268.05
Q 310.45 265.75 310.15 263.4 310 261.75 309 260.4 308.8 256.2 307.7 252.1 307.45 251.2 307.1 250.5 306.2 248.5 306 246.5 306 246.35 305.9 246.25 305.8 246.15 305.65 246.1
L 305.25 245.95
Q 304.2 243.85 304.05 241.8 305.45 240.9 307.2 240.1 307.35 240.05 307.5 240.05 307.7 240.05 307.85 239.9 308 239.75 308 239.55
L 308 238.8
Q 310.1 237.1 312.4 238.25
L 312.35 238.25
Q 313.15 238.7 313.8 239.5 314.15 239.95 314.45 240.55 314.5 240.65 314.6 240.75 314.65 240.8 314.75 240.85
L 315.2 241
Q 318.7 245.5 321 250.6 322.5 254 323.5 257.55 323.5 257.65 323.6 257.8 323.7 257.85 323.85 257.9
L 324.05 257.95
M 324.95 273.05
L 324.05 284.15 323.9 284.2
Q 323.75 284.2 323.65 284.35 323.5 284.45 323.5 284.6 321.95 290.45 318.2 295.05 317.65 295.6 317.15 296.2 317 296.35 317 296.55
L 317 297.1
Q 316.8 297.1 316.65 297.25 316.5 297.4 316.5 297.6 316.5 298.75 315.55 299.5 315.5 299.5 315.5 299.55 315.25 299.8 314.9 299.85 314.8 299.85 314.75 299.95 314.55 300 314.4 300.05 314.25 300.1 314.15 300.25 314 300.35 314 300.55
L 314 302.2
Q 312.95 302.65 312.05 303.3 312 303.3 312 303.35 311.55 303.65 311.05 303.85 310.25 303.6 309.6 303.3
L 309.65 303.3
Q 308.75 302.8 307.95 302.25
L 307.85 301.85
Q 307.75 301.65 307.6 301.55 306.5 301 305.6 300.4
L 305.55 300.4
Q 304.75 299.9 304 299.35
L 304 297.8
Q 304.95 296.8 305 295.6
L 305 295.55
Q 305 295.15 305 294.75 308.4 290.25 308.85 284.6 309 282.5 309 280.55 309 279.65 309 278.75 310.65 277 310.25 274.45 310.15 273.75 310.1 273.05
L 324.95 273.05
M 285.75 80.35
Q 286 80.35 286.3 80.35 286.7 80.45 287.1 80.65 287.45 80.8 287.7 81.1 287.8 81.2 287.9 81.35 288.2 81.45 288.5 81.55 291.05 82.45 293.35 83.95 296.25 85.75 298.5 88.25 300.85 90.8 302.4 93.85 304.1 97.2 304.95 100.75 305.25 102.1 305.35 103.55 305.5 105.45 305.5 107.35 305.5 113.05 305.55 118.75 305.6 121.55 305.55 124.45 305.5 126.35 305.5 128.25 305.5 131.05 305.5 133.85 305.5 135.75 305.5 137.65 305.5 139.55 305.5 141.45 305.5 143.35 305.5 145.25 305.5 148.05 305.5 150.85 305.5 152.75 305.5 154.65 305.5 156.55 305.5 158.45 305.5 161.25 305.5 164.05 305.5 165.95 305.5 167.85 305.5 169.75 305.5 171.65 305.5 173.55 305.5 175.45 305.5 177.35 305.5 179.25 305.5 181.15 305.5 183.05 305.5 184.95 305.5 186.85 305.5 188.75 305.5 190.65 305.5 193.45 305.5 196.25 305.5 198.15 305.5 200.05 305.5 201.95 305.5 203.85 305.5 206.65 305.5 209.45 305.5 211.35 305.5 213.25 305.5 215.15 305.5 217.05 305.5 218.95 305.5 220.85 305.5 223.2 305.5 225.55 304.6 225.5 303.95 224.9 303.3 224.3 302.45 224 301.75 223.7 301.1 223.4 300.1 222.95 299.2 222.45 296.05 220.65 292.5 219.75 289.5 219 286.5 218.55
L 286.45 218.05
Q 282.35 217.65 278.15 217.65 272.95 217.65 267.9 218.2 266.7 218.35 265.5 218.55
L 265.5 219.55 262.5 219.55 262.5 220.55
Q 260.3 220.7 258.35 221.45 256.6 222.1 254.9 223 253.9 223.45 252.95 223.85 251.75 224.3 250.5 224.55
L 250.5 225.55
Q 250.05 225.65 249.7 225.85 246.55 227.95 243.55 230.1 242.55 230.85 241.5 231.55
L 241.5 232.55
Q 241.15 232.65 240.9 232.9 239 234.75 237.2 236.7 235.35 238.65 233.5 240.55
L 233.5 241.55 233 241.65
Q 232.65 243.6 231.35 244.9 230.95 245.25 230.5 245.55 230.75 246.55 230.15 247.35 229.35 248.45 228.5 249.55 228.55 250.9 228.3 252 228 253.2 227.5 254.4 225.7 258.35 225.5 262.55 225.5 263.05 225.5 263.55
L 224.5 263.55
Q 224.45 267.75 224.5 272 224.6 277 225.55 281.85 226.45 286.25 228.2 290.3 229 292.15 230 293.95 231.5 296.75 233.45 299.1
L 233.5 299.55
Q 234.15 300.25 234.45 301.1 234.6 301.7 234.85 302.3 235.25 303.5 236.3 303.95 236.4 304.25 236.55 304.55 236.7 304.8 236.95 305.1 237.1 305.35 237.25 305.65 237.4 306.1 237.5 306.55 237.7 306.6 237.95 306.65 238.1 306.7 238.25 306.8 238.35 306.9 238.45 307 238.45 307.05 238.5 307.15 238.3 307.8 237.7 307.65 236.3 307.9 234.9 307.7 233.7 307.6 232.5 307.6 227 307.7 221.4 307.75 215.8 307.85 210.35 307.8 207.6 307.8 204.85 307.85 198.1 307.9 191.2 307.75 187.1 307.7 183 307.65 178.95 307.65 174.95 307.6 172.25 307.45 169.55 307.4 166.9 307.35 164.25 307.3 161.55 307.2 158.85 307.1 156.2 307 153.55 306.9 150.85 306.8 148.2 306.7 146.85 306.6 145.5 306.55
L 146.5 306.55 146.5 305.55
Q 144.75 305.85 143.2 305.3 142.3 305 141.5 304.55 141.1 304.4 140.8 304.2 139.6 303.45 138.4 302.8 137 302.05 135.5 301.55 135.35 301.2 135.15 300.95 133.55 299.3 131.9 297.75 130.15 296.15 128.5 294.55 128.35 293.05 127.6 291.95 127.1 291.2 126.5 290.55 126.4 289.8 126.1 289.05 125.4 287.4 125.5 285.55 125.5 285.05 125.5 284.55
L 125 284.55 124.5 104.05 125 104.05 125 103.55 125.5 103.55 125.5 97.55
Q 126.35 96.4 127 95.2 127.75 93.9 128.25 92.45 128.4 92 128.5 91.55
L 135.45 85 135.5 84.55
Q 138.3 82.85 141.25 81.85 142.3 81.45 143.35 81.1
L 143.5 80.55 148.5 80.55 148.5 79.55 284.5 80.05 284.5 80.55
Q 285.1 80.45 285.75 80.35
M 301.3 234.75
Q 298.6 234.45 296.45 232.9 294.8 231.75 293.6 230.4 291.5 228 290 225.45
L 290 225.15
Q 291.5 225.3 292.95 225.65 295.25 226.15 297.5 227 298.65 227.35 299.85 227.85 300.05 227.95 300.3 228.05 301.75 229.2 303.25 230.4 304.8 231.55 306.45 232.65 306.65 232.75 306.9 232.85
L 306.95 232.9 306.85 232.95 306.4 233.1
Q 306.2 233.1 306.1 233.25 306 233.4 306 233.55
L 306 234.2
Q 305.25 234.35 304.5 234.55 302.85 234.65 301.3 234.75
M 289.5 231.3
Q 290.75 232.75 291.65 234.3 292.1 235.15 292.4 236.15 293 238.3 291.7 239.9 291.05 240.7 290.4 241.55
L 290.4 241.6
Q 290.2 241.8 290.15 242.1 285.15 243.2 280 243.1
L 280 225.2 280.95 225.4 281.05 225.7
Q 281.05 225.8 281.15 225.9 281.25 226 281.35 226.05 286.15 227.5 289.5 231.3
M 292.8 246.35
L 292.85 246.05
Q 294.2 246.05 295.5 246.05
L 295.55 246.05
Q 296.9 245.95 298.3 245.15 299.05 246.4 299.8 247.7 301.05 249.85 301.95 252.35 302.85 254.85 303.45 257.55 303.5 257.7 303.6 257.8 303.7 257.9 303.85 257.95
L 304 258 304 263.55
Q 304 263.75 304.15 263.9 304.25 264 304.4 264.05
L 304.65 264.15
Q 304.85 264.95 305 265.85 305.15 266.7 304.7 267.35 304.45 267.7 304.05 267.85
L 304.1 267.85
Q 303.3 268 302.5 268 295.6 268 288.8 268.05 284.4 268.05 280 268.05
L 280 248.05
Q 281.5 248.05 283 248.05 285.55 248.05 288.2 248
L 288.25 248
Q 290.6 247.85 292.6 246.65 292.75 246.5 292.8 246.35
M 259.7 226.5
Q 259.75 226.4 259.8 226.3
L 259.85 226.05 263.85 225.9 263.35 226.5
Q 263.3 226.6 263.3 226.7
L 263.1 227.2
Q 262.8 227.3 262.55 227.55 260.3 229.8 258.15 232.25 258 232.35 258 232.55
L 258 233.2 257.75 233.3
Q 257.55 233.35 257.5 233.5 257.3 233.8 257.1 234.1 257.05 234.1 257.05 234.15 256.5 234.95 255.45 235.05 255.3 235.1 255.15 235.2 255.05 235.3 255 235.5
L 254.75 237
Q 254.7 237 254.65 237.05 254.4 237.2 254.15 237.3 253.45 237.3 252.9 237.15
L 252.75 236.75
Q 252.65 236.6 252.55 236.5
L 248 233.3 248 232.95
Q 248.3 232.85 248.6 232.8 248.65 232.8 248.7 232.8 250.05 232.25 251.1 231.2 251.15 231.15 251.25 231.15 251.7 231 251.8 230.75 251.8 230.7 251.85 230.65 251.95 230.3 252 229.9
L 259.5 226.6
Q 259.6 226.55 259.7 226.5
M 248.25 240.1
Q 249.15 240.55 249.95 241.15 250.85 241.85 250.8 242.9 250.8 243.7 250.6 244.5
L 250.6 244.55
Q 250.4 245.25 250.1 245.9 250.1 245.95 250.1 246 250.05 246.05 250.05 246.15
L 249.9 246.2
Q 249.75 246.25 249.65 246.35 249.5 246.45 249.5 246.6 248.5 250.15 247.1 253.35 246.45 254.85 246.25 256.55 246.05 258.3 246 260.05
L 245.5 260.05
Q 245.3 260.05 245.15 260.2 245 260.35 245 260.55
L 245 263.05 244.5 263.05
Q 244.3 263.05 244.15 263.2 244 263.35 244 263.55
L 244 266.55 243.25 266.65
Q 243.1 266.7 243 266.8 241.4 268.15 239.4 268.5 234.65 269.3 230 268.2
L 230 262.75
Q 231.8 260.9 232.2 258.4 232.45 256.7 232.5 255.05 232.65 255.05 232.8 255 232.9 254.9 232.95 254.75 233 254.6 233 254.5 232.7 252.45 233.95 250.7 236.4 247.4 237.85 243.7
L 237.85 243.65
Q 237.95 243.25 238 242.8
L 244.15 237.3
Q 244.45 237.5 244.75 237.8
L 244.8 237.85
Q 245.9 238.95 247.45 239.7 247.85 239.9 248.25 240.1
M 260.65 238.65
Q 260.7 238.55 260.75 238.45
L 260.95 237.85 268.85 229.35
Q 268.95 229.2 268.95 229 271.55 228.3 273.15 226.2
L 273.7 226
Q 273.85 225.95 273.95 225.85 274 225.7 274 225.55
L 274 225.05 275 225.05 275 243.05
Q 272.8 243.05 270.6 243.05 270.2 242.95 269.9 242.8 269.3 242.5 268.8 242.15 268.65 242.05 268.45 242.05 265.4 242.3 262.9 240.9 262 240.45 261.3 239.8 260.8 239.3 260.35 238.8
L 260.45 238.75
Q 260.55 238.7 260.65 238.65
M 255.05 246.75
Q 255.85 245.95 257.05 245.7 257.85 245.4 258.8 245.35 259.8 245.65 260.85 245.9 261.35 246.1 261.9 246.35
L 262.05 246.7
Q 262.1 246.85 262.25 247 262.35 247.05 262.55 247.05 263.8 246.9 264.95 246.85 265.8 247.05 266.7 247.4
L 266.75 247.4
Q 267.1 247.5 267.45 247.75 267.5 247.8 267.6 247.85 267.7 247.85 267.9 247.95 268 248 268.1 248
L 275 248.05 275 267.5
Q 274.996875 267.39375 274.95 267.3 274.85 267.15 274.7 267.1 274.55 267.05 274.45 267.05 272.1 267.45 269.6 267.8 267.8 267.9 266.05 268.05 263.1 268.05 260.1 268.05 255.3 268 250.6 268.05
L 250.05 263.05 250.5 263.05
Q 250.7 263.05 250.85 262.9 251 262.75 251 262.6 251.1 260.15 251.6 257.75 252.05 255.5 252.95 253.35 253.95 251.05 254.8 248.65
L 254.8 248.7
Q 255.1 247.7 255.05 246.75
M 253.4 273.05
Q 256.3 273.05 259.2 273.05 262.05 273.05 264.9 273.05 267.8 273.05 270.7 273.05 272.6 273.05 274.45 273.05 274.65 273.1 274.85 273.2 274.85 273.35 274.85 273.55
L 274.85 273.6
Q 275 275.8 275 278.05 275 280.3 275 282.55 275 284.8 275 287.05 274.95 289.55 275 292.05
L 274.5 292.05
Q 274.3 292.05 274.2 292.2 274.05 292.3 274 292.45
L 274 292.6
Q 271.4 293.05 268.85 293.5 266.35 293.85 263.95 294.2 261.7 294.45 259.5 294.75 257.65 294.9 255.9 295.05 255.75 294.75 255.65 294.5
L 255.65 294.55
Q 254.35 291.9 253.05 289.3 252.85 288.9 252.75 288.5 252.3 287.05 251.9 285.65 251.05 282.55 251 279.55 251 279.35 250.85 279.2 250.7 279.05 250.5 279.05
L 250 279.05 250 273.05
Q 251.7 273.05 253.4 273.05
M 244.85 277.7
Q 245.55 281.05 246.15 284.45 246.65 287.15 247.45 289.9 248.95 295.15 250.85 300.25 249.7 300.7 248.55 301.2 245.9 302.35 243.35 303.95 243.3 303.95 243.3 304 242.4 302.75 241.6 301.55
L 241.55 301.55
Q 239.1 298.05 236 295.3 235.3 291.9 233 289.35 232.95 288.9 232.85 288.5 232.35 286.25 231.6 284.15 230.9 282.25 230 280.45
L 230 273
Q 230.65 272.85 231.35 272.75 234.15 272.2 237 272.25 239.55 272.25 241.85 273.65 244.25 275.1 244.9 277.75
L 244.85 277.7
M 280 293.1
L 280 273.05 305.05 273.05
Q 305.1 273.85 305.2 274.65 305.25 275.5 305.2 276.35 305.15 277.05 304.95 277.75 304.75 278.3 304.45 278.8 304.3 279.05 304.1 279.25 304 279.35 304 279.55 303.95 280.7 303.85 281.95 303.7 283.15 303.45 284.45 303.1 285.55 302.7 286.6 302.25 287.55 301.75 288.45 301.45 288.85 301.15 289.25 301 289.35 301 289.55 300.95 290.5 300.75 291.45
L 300.8 291.45
Q 300.6 292.2 300.15 292.95 299.7 293.6 299.15 294.2 299 294.35 299 294.55
L 299 295.95 290.95 294.15 290.9 293.95
Q 290.85 293.8 290.75 293.7 290.6 293.55 290.45 293.55
L 280 293.1
M 294.85 302.15
L 294.8 302.2
Q 293.9 304 292.35 305.35 291.8 305.75 291.25 306.15 291.1 306.2 291.05 306.35 291 306.45 291 306.55
L 291 307.2 290.7 307.35
Q 290.5 307.35 290.4 307.5 289.85 308.2 289.3 308.9 287.5 310.9 285.25 312.1 285.15 312.15 285.1 312.3 285 312.4 285 312.55
L 285 313.2 284.9 313.2
Q 284.75 313.2 284.65 313.3 284.5 313.4 284.5 313.55 284.4 313.75 284.3 313.95
L 284.25 314
Q 283.95 314.5 283.6 314.75 283.1 314.85 282.65 315.05 282.05 315.05 281.5 315.05 281.35 315.05 281.2 315.15 281.05 315.25 281.05 315.4
L 280.9 315.8
Q 280.8 315.85 280.7 315.95 280.55 316 280.4 316.05 280.2 316.05 280.1 316.05
L 280.05 316.05
Q 279.8 315.3 279.85 314.6 280 312.45 280 310.35 279.95 305.15 280 299.75 280 298.9 280 298.1
L 286 298.55
Q 286 298.75 286.15 298.9 286.3 299.05 286.5 299.05
L 290.35 299.05
Q 290.75 299.4 291.25 299.75 292.9 300.95 294.95 301.45 294.95 301.85 294.85 302.15
M 301.95 304.95
L 302.6 305.05
Q 303.15 306 303.35 307.4 303.65 309.45 302.4 311.1 301.8 311.95 301 312.7 298.8 314.5 295.9 314.95 295.85 314.95 295.85 315 293 315.7 289.9 315.95 289.75 315.95 289.65 315.95 291.05 315.05 292.3 313.85 293.05 313.1 293.8 312.35 293.95 312.2 293.95 312
L 294 311.8
Q 296.5 309.4 298.4 306.6 299.15 305.45 299.8 304.25 299.85 304.1 299.9 304 300.25 303.95 300.55 303.9 300.7 303.9 300.85 303.95 300.9 303.95 300.95 303.95 301 303.95 301.05 304 301.2 304.05 301.35 304.2
L 301.55 304.6
Q 301.55 304.75 301.7 304.85 301.8 304.95 301.95 304.95
M 274.1 298.05
Q 275.2 303.1 275.3 308.25 275.35 311.9 275.05 315.5 275.05 315.7 275.05 315.9 274.95 315.85 274.9 315.8 274.3 315.5 273.8 315.15 273.75 315.1 273.7 315.1 273.4 314.95 273.2 314.8 273.2 314.75 273.15 314.75 270.9 313 268.5 311.25 267.7 310.7 266.95 310.25 266.85 310.05 266.8 309.95
L 266.75 309.9
Q 265.8 308.8 264.75 307.85 263.85 307.05 263 306.35
L 263 305.55
Q 263 305.4 262.9 305.25 262.8 305.1 262.65 305.1
L 262.2 304.95
Q 261.7 304.2 261.3 303.55
L 261.25 303.5
Q 260.9 303.1 260.6 302.8 260.6 302.75 260.55 302.75 260.25 302.55 260 302.35
L 260 301 265.6 300.1 266.5 300.05
Q 266.7 300.05 266.85 299.9 267 299.75 267 299.55
L 267 299.05 268.5 299.05
Q 268.7 299.05 268.85 298.9 269 298.75 269 298.55
L 269 298.05 274.1 298.05
M 263.8 314.8
Q 263.9 314.9 264 314.95 264.05 314.95 264.15 315
L 264.9 316.3
Q 262.05 316.05 259.4 315
L 259.35 315
Q 258.15 314.55 256.9 314.15
L 256.85 313.85
Q 256.8 313.75 256.75 313.65 256.65 313.6 256.55 313.55 255.7 313.2 254.9 312.9 252.6 311.85 250.85 310.2 250.75 310.1 250.6 310.05 250.35 310 250.15 310.05 250.05 309.95 250 309.9 249.95 309.85 249.9 309.8 249.4 309.55 248.95 309.25 248.9 309.1 248.9 309 248.85 308.65 248.7 308.45 248.45 308.05 248.25 307.7
L 253.55 304.6
Q 253.7 304.5 253.8 304.3
L 253.85 304.05 255.1 304.05 255.4 305.45
Q 255.45 305.6 255.55 305.7 255.6 305.8 255.75 305.85
L 256.2 306
Q 257 307.05 257.85 308.15
L 257.9 308.2
Q 259.65 310.4 261.6 312.55 262.65 313.7 263.8 314.8
M 150.5 269.55
L 150.5 278.55 220 278.5
Q 220.2 276.25 220.3 274 220.45 271.8 220.5 269.55
L 150.5 269.55
M 150.5 245.55
Q 150.5 246.05 150.45 246.55 150.3 247.55 150.1 248.6 149.75 250.55 150.45 252.4 150.85 253.55 152 254.1 153.25 254.75 154.65 254.7 155.55 254.6 156.5 254.55 158.6 254.55 160.7 254.55 162.75 254.55 164.8 254.55 166.85 254.55 168.9 254.55 170.95 254.55 173 254.55 175.1 254.55 177.2 254.55 179.25 254.55 181.3 254.55 183.35 254.55 185.4 254.55 187.45 254.5 189.5 254.5 191.6 254.45 193.7 254.4 195.75 254.4 197.8 254.4 199.85 254.4 201.9 254.4 203.95 254.35 206 254.35 208.1 254.3 210.2 254.25 212.25 254.25 214.3 254.2 216.35 254.15 218.4 254.15 220.45 254.1 222.5 254.05
L 222.5 251.55
Q 222.85 251.25 223.1 250.95 223.65 250.25 223.95 249.4 224.3 248.5 224.5 247.55
L 225 247.55 224.5 247.5 224.5 247.05
Q 221.7 247 218.95 247 216.95 246.85 215 246.7 212.95 246.55 210.95 246.45 208.9 246.25 206.9 246.15 204.8 246 202.75 245.9 200.65 245.8 198.6 245.75 196.5 245.65 194.4 245.55 192.3 245.45 190.2 245.4 188.05 245.3 185.9 245.25 183.75 245.25 181.65 245.25 179.45 245.2 177.3 245.2 175.1 245.2 172.95 245.2 170.7 245.2 168.5 245.2 166.3 245.25 164.1 245.25 161.85 245.3 159.6 245.35 157.35 245.4 155.1 245.45 152.8 245.5 150.5 245.55
M 150.5 206.55
Q 154 206.65 157.5 206.75 161 206.85 164.5 206.9 168.05 207 171.6 207.1 175.15 207.15 178.7 207.2 180.85 207.2 183.05 207.3 184.7 207.3 186.4 207.35 189.3 207.4 192.2 207.45 195.1 207.5 198.05 207.55 200.95 207.55 203.85 207.55 206.8 207.55 209.75 207.55 212.7 207.6 215.7 207.6 218.65 207.6 221.6 207.6 224.55 207.6 227.55 207.6 230.55 207.55 233.55 207.55 236.55 207.55 239.6 207.55 242.65 207.55 245.7 207.55 248.7 207.55 251.75 207.55 254.8 207.5 257.85 207.45 260.95 207.4 264.05 207.35 267.1 207.35 270.2 207.3 273.3 207.2 276.4 207.15 277.95 207.1 279.5 207.05
L 279.5 198.05 150.5 197.55 150.5 206.55
M 161.85 221.35
Q 159 221.4 156.2 221.45 153.35 221.5 150.5 221.55 150.4 222.55 150.3 223.6 150.15 224.85 150.2 226.1 150.2 227.35 150.75 228.5 151.2 229.35 152.1 229.95 152.9 230.35 153.8 230.65 154.65 230.55 155.5 230.55 157.95 230.65 160.4 230.8 162.8 230.9 165.25 231.05 167.7 231.1 170.15 231.2 172.6 231.25 175.05 231.3 177.55 231.35 180.05 231.45 182.5 231.5 184.95 231.5 187.45 231.55 189.95 231.6 192.4 231.6 194.9 231.6 197.4 231.6 199.95 231.65 202.45 231.65 204.95 231.7 211.25 231.75 217.65 231.6 221.35 231.5 225.25 231.4 230.5 231.3 235.5 231.05
L 235.5 230.55 236.25 230.3 236.5 229.55
Q 238.35 227.9 240.2 226.25 240.35 226.15 240.45 226
L 240.5 225.55
Q 241 225.4 241.5 225.3 241.9 225.1 242.3 224.8 242.7 224.65 243.05 224.35 243.4 224.1 243.75 223.8 243.9 223.7 244.1 223.65
L 245 223.55 244.5 223.5 244.5 223.05 237.15 223
Q 234.6 222.85 232.05 222.7 229.45 222.55 226.85 222.4 224.25 222.25 221.65 222.15 219 222 216.4 221.95 213.75 221.8 211.15 221.75 208.45 221.65 205.8 221.6 203.1 221.45 200.45 221.4 197.7 221.3 195 221.3 192.3 221.25 189.6 221.25 186.85 221.2 184.1 221.2 181.35 221.2 178.6 221.2 175.8 221.2 173.05 221.2 170.25 221.25 167.5 221.25 164.65 221.3 161.85 221.35
M 222.5 173.55
L 222.5 182.55
Q 224.25 182.65 226 182.8 227.7 182.9 229.4 183.05 231.15 183.1 232.9 183.2 234.6 183.25 236.35 183.3 238.1 183.35 239.85 183.45 241.6 183.5 243.35 183.5 245.1 183.55 246.9 183.6 248.65 183.6 250.4 183.6 252.2 183.6 254 183.6 255.8 183.65 257.6 183.65 259.4 183.65 261.25 183.6 263.05 183.6 264.85 183.6 266.7 183.5 268.55 183.45 270.35 183.45 272.15 183.4 274 183.3 275.85 183.25 277.65 183.15 279.5 183.05
L 279.5 174.05 222.5 173.55
M 226.1 159.55
Q 227.9 159.55 229.7 159.55 231.5 159.55 233.3 159.55 235.05 159.55 236.8 159.55 238.6 159.55 240.4 159.55 242.15 159.55 243.9 159.55 245.7 159.55 247.5 159.5 249.25 159.5 251 159.5 252.8 159.45 254.6 159.45 256.4 159.4 258.2 159.4 260 159.4 261.8 159.35 263.55 159.35 265.3 159.35 267.1 159.3 268.9 159.25 270.65 159.25 272.4 159.2 274.2 159.15 276 159.1 277.75 159.1 279.5 159.05
L 279.5 150.05 222.5 149.55 222.5 159.55
Q 224.3 159.55 226.1 159.55
M 190.5 158.55
L 190.5 159.55
Q 190.25 159.6 190.05 159.65 189.05 160.25 188.05 160.9 185.05 163.05 181.5 163.55 178 163.55 174.5 163.55
L 174.35 163
Q 172.8 162.35 171.3 161.7 166.95 159.75 163.5 156.55 163.05 156.65 162.65 156.85 159.05 158.55 155.35 159.95 151.4 161.45 147.5 162.55
L 147.45 163 144.5 166.55 144.5 168.55 143.5 168.55
Q 143.8 169.15 144.2 169.75 144.85 170.85 145.75 171.85 146.55 172.8 147.6 173.6 148.65 174.4 149.9 175 151.2 175.65 152.65 176.05 154.2 176.55 155.8 176.95 156.65 177.05 157.55 177.15 158.5 177.2 159.5 177.3 164.15 177.5 168.9 176.95 173.45 176.65 178.15 176.25 181.2 176.05 184.25 175.85 187.2 175.6 190.2 175.35 196.1 174.95 202.05 174.45 207.9 174.15 213.5 173.55
L 213.65 169.05 212.5 168.55
Q 212.4 168.05 212.25 167.65 211.2 164.8 209.15 162.7 207 160.55 204 159.65 201.75 159.1 199.5 158.55 199.1 158.4 198.8 158.2 197.05 156.65 194.7 156.65 192.3 157.05 190.5 158.55
M 193.5 108.55
Q 193 108.45 192.6 108.3 190.5 107.45 188.4 106.95 186.9 106.55 185.3 106.55 181.85 106.6 178.5 106.6 174 106.55 169.5 106.55
L 169.35 107.1 162.5 109.55
Q 162.35 109.95 162.15 110.3 160.85 112.45 159.5 114.55 159.5 115.05 159.55 115.55 159.75 117.5 159.8 119.45 159.8 121.05 159.7 122.7 159.5 125.55 157.5 127.55 157.5 128.8 157.5 130.05 157.5 131.8 158.1 133.3 160.05 138.25 162 143.35 162.75 145.4 163.5 147.55 165.2 149.1 166.95 150.65 168.6 152.2 170.15 153.85 170.35 154.15 170.5 154.55
L 174.3 155.95 174.5 156.55
Q 178 156.55 181.5 156.55 182.9 156.15 184.25 155.55 186.85 154.45 189.05 152.55 191.95 150.1 193.85 146.75
L 194.5 146.55
Q 195.45 144 196.6 141.55 197.85 138.8 198.5 135.55
L 199.1 135.35
Q 199.45 134.6 199.8 133.9 200.7 132 200.55 129.9 200.4 127.3 198.5 125.55 198.65 123.15 198.5 120.85 198.4 119.05 198.2 117.35 197.9 114.3 196.5 111.55
L 195.75 111.3 193.5 108.55
M 222.5 125.55
L 222.5 135.55
Q 223.65 135.55 224.8 135.55 225.95 135.55 227.1 135.55 228.25 135.55 229.4 135.55 230.55 135.55 231.7 135.55 232.5 135.8 233.3 136.1 234.15 136.25 235 136.45 235.9 136.6 236.85 136.8 237.8 136.8 238.75 136.9 239.8 136.9 240.85 136.9 241.9 136.9 243 136.9 244.15 136.8 245.35 136.75 246.55 136.6 247.75 136.5 249.1 136.3 250.45 136.2 251.8 136.05 253.15 135.9 254.5 135.75 255.85 135.65 258.55 135.5 261.25 135.35 263.85 135.35 266.45 135.35 270.45 135.3 274.3 135.15 276.9 135.1 279.5 135.05
L 279.5 126.05 222.5 125.55 Z"/>
</g>
</defs>

<g transform="matrix( 0.4878082275390625, 0, 0, 0.487823486328125, 0,0) ">
<use xlink:href="#Layer0_0_FILL"/>
</g>
</svg>
