
<svg xmlns="http://www.w3.org/2000/svg" version="1.1" xmlns:xlink="http://www.w3.org/1999/xlink" preserveAspectRatio="none" x="0px" y="0px" width="200px" height="183px" viewBox="0 0 200 183">
<defs>
<g id="Layer0_0_FILL">
<path fill="#FFCC00" stroke="none" d="
M 11.2 134.4
Q 11.2 134.3 11.15 134.25 11.1 134.2 11.05 134.2
L 10.85 134.1
Q 10.1 132.9 8.95 132.45 7.75 131.95 6.65 132.65 5.8 133.15 5 133.75 4.95 133.75 4.9 133.85 4.9 133.9 4.9 133.95
L 4.9 135.9
Q 4.9 135.95 4.95 136.05 5.1 136.3 5.25 136.65 5.45 137 5.6 137.35 5.65 137.45 5.75 137.5 5.8 137.55 5.85 137.6
L 5.9 137.6
Q 5.9 137.7 5.95 137.75 6 137.75 6.05 137.8 8 138.15 10 138.1 10.1 138.1 10.15 138.05 10.2 138 10.25 137.9 10.25 137.85 10.25 137.75 10.85 137.2 11.1 136.35 11.35 135.4 11.2 134.4
M 9.05 112.45
Q 7.15 112.2 5.4 112.7 2.8 113.3 1.05 115.2 1 115.3 1 115.35 0.95 115.6 0.9 115.85 0.8 116.65 0.1 117.15 0.05 117.2 0 117.25 0 117.3 0 117.35
L 0 122.2
Q 0 122.3 0.05 122.35 0.1 122.45 0.15 122.45
L 0.35 122.5 1.5 125.25
Q 1.5 125.3 1.55 125.35 1.6 125.35 1.65 125.4 1.8 125.4 1.95 125.5
L 1.95 125.55
Q 2.9 126.1 3.9 126.7 4.95 127.3 6.1 127.55 7.75 127.8 9.5 127.85 9.6 127.85 9.65 127.8 9.7 127.75 9.75 127.65
L 9.8 127.5 12.55 126.35
Q 12.6 126.3 12.65 126.3 12.65 126.25 12.7 126.2 12.7 126.05 12.8 125.95 13.4 125.1 14 124.2 14.6 123.25 14.8 122.2 15.1 120.05 15.1 117.85 15.1 117.75 15.05 117.7 15 117.6 14.95 117.6
L 14.8 117.55 14.15 115.35
Q 14.1 115.25 14.05 115.2
L 14 115.2 13.95 115.15 13.9 115.15
Q 13.35 114.7 12.85 114.3 11.85 113.5 10.75 112.95
L 10.75 113
Q 9.95 112.5 9.05 112.45
M 40.75 8.85
Q 40.75 8.8 40.7 8.8 39.55 8.55 38.35 8.95 37.6 9.15 36.95 9.4 36.85 9.45 36.85 9.5 36.45 10.1 36 10.7 35.6 11.3 35.2 11.85 35.1 11.9 35.1 12 35.15 13.55 35.8 14.85 36.25 15.85 37.15 16.55 37.2 16.6 37.25 16.6 37.9 16.75 38.55 16.95 39.6 17.25 40.85 17.05 42.35 16.75 43.35 15.55
L 43.4 15.5
Q 44.05 13.8 43.8 11.95 43.6 10.45 42.35 9.35 42.3 9.3 42.25 9.3 42 9.25 41.8 9.2 41.25 9 40.75 8.85
M 61.05 17.15
L 61 17.15
Q 60.95 16.45 60.7 15.95 60.6 15.75 60.5 15.55
L 60.5 15.6
Q 60 14.6 59 14.25
L 58.95 14.05 58.9 14
Q 58.85 13.95 58.8 13.9 58.05 13.6 57.3 13.3 56.9 13.15 56.5 13.05
L 56.5 13
Q 53.95 12.5 51.45 12.7 51.35 12.7 51.3 12.75 51.25 12.8 51.25 12.9
L 51.15 13.05 49.45 13.7
Q 49.35 13.75 49.3 13.8 49.25 13.85 49.25 13.95
L 49.25 14 46.9 16.2
Q 46.85 16.25 46.85 16.35 46.8 16.55 46.75 16.8 46.6 17.8 45.9 18.65 45.85 18.7 45.85 18.8 45.85 19.55 45.85 20.25 45.85 21.25 46 22.2 46.05 22.7 46.3 23.2 46.9 24.3 47.7 25.4 47.75 25.55 47.85 25.75 47.85 25.8 47.9 25.85 49.55 27.35 51.7 28
L 51.75 28.15
Q 51.75 28.2 51.8 28.25 51.9 28.3 51.95 28.3 53.9 28.3 55.85 28.3
L 55.9 28.3
Q 56.25 28.25 56.6 28.1 57.25 28 57.9 27.65 58.35 27.35 58.8 27.35 58.85 27.35 58.95 27.3 59 27.25 59 27.2 59.1 27 59.25 26.8
L 59.25 26.75
Q 59.65 26.05 60.35 25.6 60.4 25.55 60.45 25.5 60.45 25.45 60.45 25.4
L 60.5 24.8
Q 61.15 24.15 61.5 23.35 61.9 22.5 62 21.55 62 21.05 62 20.6 61.9 18.9 61.2 17.3 61.2 17.25 61.15 17.2 61.1 17.15 61.05 17.15
M 177.05 143.3
Q 175.85 143.9 175.05 144.85 174.1 145.85 173.7 147.05 173.65 147.05 173.65 147.1 173.65 147.7 173.65 148.3 173.65 149.25 173.95 150.05
L 173.95 150
Q 174.35 151.25 174.65 152.55
L 174.7 152.6
Q 174.7 152.65 174.75 152.7 175.3 153 175.9 153.3 176.45 153.6 177.05 153.85
L 177.1 154
Q 177.1 154.1 177.15 154.15 177.2 154.2 177.3 154.2 177.85 154.25 178.35 154.25 180.65 154.45 182.6 153.45 183.45 153.05 183.85 152.3
L 183.9 152.25 183.9 152.2 184 152.2
Q 184.15 152.2 184.15 152 184.4 151.45 184.7 151
L 184.7 151.05
Q 185 150.6 185.3 150.2 185.35 150.15 185.35 150.05 185.5 148.85 185.3 147.7 185.15 146.55 184.45 145.5 183.85 144.55 182.9 144.05
L 182.85 143.8 182.8 143.75
Q 182.75 143.7 182.7 143.65 181.2 143 179.65 142.95
L 179.6 142.95
Q 178.45 142.9 177.3 142.95 177.2 142.95 177.15 143 177.1 143.05 177.1 143.15
L 177.05 143.3
M 196 54.2
Q 195.95 54.15 195.85 54.15
L 191 54.15
Q 190.9 54.15 190.85 54.25 190.75 54.3 190.75 54.4
L 190.7 54.5
Q 189.15 55.2 187.9 56.15 187.85 56.2 187.85 56.25 187.8 56.3 187.8 56.35 187.8 56.55 187.75 56.8
L 187.75 56.85
Q 187.6 57.65 186.95 58.1 186.9 58.15 186.85 58.2 186.85 58.25 186.85 58.3
L 186.85 63.2
Q 186.85 63.25 186.9 63.35 186.95 63.4 187 63.45
L 187.2 63.5
Q 188 65.1 189.35 66.3 189.4 66.35 189.5 66.35 190.75 66.5 191.8 67.3 191.9 67.35 191.95 67.35
L 194.9 67.35
Q 195 67.35 195.05 67.3 195.1 67.2 195.1 67.15
L 195.15 67.05 197.4 66.35
Q 197.45 66.35 197.5 66.3 197.55 66.25 197.55 66.2 197.6 66.1 197.65 66
L 197.7 66
Q 198.3 65.25 198.85 64.5 199.5 63.65 199.65 62.7 200 60.8 200 58.8 200 58.75 199.95 58.65 199.9 58.6 199.85 58.6
L 199.65 58.5 199.05 56.8
Q 199 56.7 198.95 56.7 198.9 56.65 198.85 56.65
L 198.6 56.55
Q 197.55 55.1 196 54.2
M 186.35 45.15
L 186.35 45.4 186.1 45.4
Q 186 45.4 185.95 45.45 185.9 45.5 185.85 45.6 185.7 46.9 185.95 48.15 186.05 48.7 186.25 49.2 186.3 49.4 186.35 49.6 186.35 49.7 186.45 49.75 187.75 50.7 189.3 50.75 189.65 50.75 190.05 50.7
L 190.1 50.7
Q 191.05 50.45 191.85 49.75 192.2 49.45 192.45 49.1
L 192.5 49.05
Q 192.6 48.85 192.65 48.6 192.95 47.05 192.45 45.65 192.3 45.3 192.2 45.05 192.15 45 192.15 44.95 192.15 44.9 192.15 44.85 192.1 44.8 192.05 44.75 190.65 43.95 189 43.95 187.55 44.05 186.45 44.95 186.4 45 186.35 45.05 186.35 45.1 186.35 45.15
M 165.35 18.7
Q 165.3 18.55 165.25 18.5 164.3 16.55 162.4 15.7
L 162.3 15.5
Q 162.3 15.4 162.25 15.35 159.55 13.1 156.55 11.35
L 156.5 11.1
Q 156.45 11 156.35 10.95
L 151.65 8.4 151.6 8.2
Q 151.6 8.15 151.55 8.1
L 151.5 8.05
Q 150.05 7.35 148.65 6.7
L 148.6 6.7
Q 147.9 6.35 147.15 6.1 143.8 4.7 140.6 3.1 138.7 2.2 136.6 2.45 136.55 2.35 136.5 2.3 136.45 2.2 136.35 2.2 136.05 2.2 135.8 2.2 135.25 2.2 135.1 1.65 135.1 1.6 135.05 1.55 135 1.5 134.9 1.5 134.65 1.45 134.45 1.45 133.05 1.15 131.7 0.95 130.25 0.7 128.9 0.5
L 128.85 0.5
Q 127.4 0.35 126 0.25 124.55 0.15 123.05 0.05 121.6 0 120.1 0 119.35 0 118.65 0 115.6 0 112.5 0.35 111.5 0.45 110.5 0.7 107.85 1.15 105.1 1.5 105 1.5 104.95 1.6 104.9 1.65 104.9 1.75
L 104.9 2 102.7 2
Q 102.6 2 102.55 2.05 102.45 2.1 102.45 2.2
L 102.4 2.3
Q 101.7 2.5 101.05 2.8 99.55 3.3 98.05 3.8 96.6 4.3 95.15 4.9 92.25 6 89.6 7.3 84.95 9.55 80.6 12.25 80.5 12.3 80.5 12.4
L 80.4 12.65 69.85 21.05
Q 69.8 21.05 69.8 21.15 69.75 21.2 69.75 21.25
L 69.75 21.55 69.55 21.65
Q 69.5 21.65 69.45 21.7 67.5 24.4 64.55 25.9 64.45 25.95 64.45 26 64.4 26.05 64.4 26.1
L 64.4 26.35 64.15 26.35
Q 64.05 26.35 64 26.45 63.9 26.5 63.9 26.6
L 63.9 26.95
Q 63.75 27 63.65 27.05 60.75 29.3 57.7 31.3 57.6 31.3 57.6 31.35 57.55 31.4 57.55 31.5
L 57.55 31.8 57.5 31.8
Q 56.75 32.15 56 32.55
L 56 32.6
Q 54.8 33.25 53.55 33.95 52.3 34.6 51.15 35.25 48.2 36.9 45.05 37.6 45 37.6 44.95 37.7 44.9 37.75 44.9 37.85
L 44.9 38.15
Q 44 38.4 43.15 38.65 41.75 39.05 40.3 39.55 39.6 39.75 38.9 40 36.1 41.05 33.35 42 33.1 42.05 32.95 42.15
L 32.9 42.15
Q 31.15 43.5 29 43.95 28.9 43.95 28.85 44.05 28.8 44.05 28.8 44.15
L 28.8 44.5
Q 28.65 44.55 28.5 44.65 27.65 45.2 26.85 45.8 26.05 46.4 25.3 47.1
L 25.3 47.05
Q 24.5 47.7 23.75 48.4 23 49.05 22.25 49.75 21.55 50.45 20.85 51.15 20.15 51.9 19.5 52.7 18.85 53.45 18.2 54.25 17.55 55.05 17 55.85 16.35 56.65 15.8 57.55 15.25 58.4 14.7 59.25 14.15 60.15 13.65 61.05 13.1 61.95 12.65 62.95 12.4 63.4 12.15 63.85 11.25 65.8 10.45 67.85 10.05 68.85 9.8 69.95 9.45 71.15 9.35 72.45 9.25 73.3 9.25 74.15 9.15 74.15 9.1 74.25 9 74.3 9 74.4 9 74.65 9.05 74.95 9.1 76.2 8.35 77.2 8.3 77.25 8.3 77.35 8.25 78.95 8.3 80.45 8.3 81.95 8.4 83.4 8.55 84.75 8.75 86.15 8.95 87.4 9.25 88.65 9.45 89.55 9.8 90.5 10.15 91.8 10.65 93.15 11.1 94.45 11.6 95.75 12.6 98.3 13.7 100.8 15.55 105.05 17.8 109.1 17.85 109.15 17.95 109.2
L 18.05 109.25
Q 18.1 109.65 18.15 110.05 18.2 111 18.3 112 18.35 112.95 18.45 113.95 18.5 114.9 18.5 115.9 18.55 116.9 18.55 117.9 18.6 118.9 18.6 119.95 18.6 121 18.6 122.05 18.6 123.1 18.55 124.15 18.55 124.9 18.55 125.65 18.55 126.15 18.55 126.6 18.55 127.65 18.55 128.7 18.55 129.75 18.55 130.75 18.55 131.8 18.55 132.85 18.55 133.9 18.5 134.9 18.4 137.7 19.25 140.25 19.25 140.3 19.3 140.35 19.35 140.4 19.4 140.45
L 19.6 140.45
Q 20.4 142.65 21.3 144.7 21.8 145.75 22.35 146.75 23 147.9 23.45 149.15 23.45 149.2 23.45 149.25 24.9 151 26.55 152.5 28.25 153.95 29.9 155.35 31.25 156.45 32.85 157.1 33.5 157.65 34.3 158.2 36.9 160.05 40.15 160.5 40.35 160.75 40.65 160.95 41.95 161.8 43.5 161.55 43.55 161.55 43.55 161.6 44 162.3 44.9 162.25 44.9 162.35 44.95 162.4 45 162.45 45.1 162.45 46.4 162.55 47.7 162.65 48.85 162.85 50 163.05 50.95 163.25 51.9 163.45 53 163.65 54.05 163.9
L 54.1 163.9
Q 54.9 163.95 55.7 164.05 56.55 164.05 57.4 164.05
L 57.45 164.05
Q 58.1 164 58.8 163.95 59.8 163.95 60.75 163.95 61.7 163.95 62.65 163.95 63.6 163.95 64.55 163.95 65.5 163.95 66.45 163.95 67.35 163.95 68.3 163.95 68.8 163.95 69.25 163.95 71.2 163.95 73.05 163.95 74 163.95 74.95 163.95 76.45 163.85 78.05 164.15
L 78.05 164.25
Q 78.05 164.3 78.1 164.35 78.15 164.4 78.25 164.4 79.65 164.6 81.05 164.8 82.3 165.1 83.6 165.45 84.3 165.6 85 165.9 85.95 166.3 86.9 166.8 87.8 167.25 88.75 167.7
L 88.7 167.7
Q 89.15 167.95 89.65 168.2 92 169.4 94.25 170.75 95.7 171.65 97.2 172.2 98.5 173.25 99.85 174.15 101.15 175.1 102.65 175.95 102.85 176.05 103.05 176.15 104.1 176.75 105.2 177.3 106.3 177.95 107.5 178.45 108.35 178.85 109.25 179.25 110.6 179.8 112 180.35 116.1 181.95 120.55 182.45 120.6 182.55 120.65 182.7 120.75 182.9 121 183.05 121.05 183.1 121.1 183.1 121.2 183.1 121.3 183.1
L 121.35 183.1
Q 121.75 183.05 122.2 182.95 123.15 183.1 124.1 183.25 126.25 183.45 128.3 183.5 129.65 183.5 131 183.5 133.45 183.45 135.85 183.2 135.95 183.2 136 183.15 136.05 183.1 136.05 183
L 136.05 182.95
Q 136.6 182.95 137.05 182.95 137.95 182.95 138.8 182.75 140.1 182.3 141.45 181.75 142.6 181.3 143.65 180.8 143.7 180.75 143.75 180.75 143.8 180.7 143.8 180.65
L 143.85 180.45 146.65 179.55
Q 146.75 179.5 146.8 179.45 147.4 178.75 148.05 178.1 148.85 177.4 149.65 176.8 149.7 176.75 149.75 176.65
L 149.75 176.55
Q 151.75 175.6 153.1 173.8 153.1 173.75 153.15 173.75
L 153.15 173.55
Q 154.05 172.55 155 171.5 155.95 170.35 156.85 169.3 157.65 168.3 158.05 167.25 159.45 165.4 160.75 163.4 161.35 162.4 162.05 161.45 163 160.2 163.4 158.95 165.3 156.8 166.2 153.95 166.3 153.75 166.35 153.5 166.6 153.15 166.8 152.8 167.35 152.05 167.9 151.25 168.4 150.45 168.9 149.65 169.4 148.8 169.9 148
L 169.9 148.05
Q 170.15 147.6 170.4 147.25
L 170.45 147.25
Q 171.5 145.65 172.5 144.05 172.95 143.2 173.5 142.45 174.2 141.5 174.6 140.4
L 178 136.75
Q 178.05 136.7 178.05 136.6
L 178.05 136
Q 178.4 135.7 178.75 135.4
L 178.8 135.4
Q 179.55 134.75 180.3 134.05 181.1 133.3 181.85 132.6 182.55 131.85 183.3 131.1 183.7 130.65 184.15 130.3 184.65 129.85 185.1 129.4 187.95 126.7 190.3 123.5
L 190.55 123.45
Q 190.6 123.4 190.65 123.4 190.7 123.35 190.7 123.3 191.2 122.1 191.8 120.95 192.35 119.9 193 118.8 193.05 118.65 193.15 118.45 193.35 118.2 193.5 117.95
L 193.55 117.95
Q 194.45 116.55 195.05 114.9 195.35 114.1 195.55 113.25 195.65 112.9 195.7 112.55 196.05 111 196.35 109.45 196.6 107.95 196.55 106.35 196.55 104.8 196.3 103.3 196.05 101.75 195.75 100.2 195.5 99 195.2 97.8 194.8 96 194 94.35 193.5 93.35 193.05 92.4 192.55 91.2 191.95 90.15 191.35 89 190.75 87.95 190.65 87.75 190.55 87.55 189.75 85.95 188.85 84.25 188.25 83.15 187.7 82 186.8 80.25 186 78.6 185.7 78 185.45 77.45 185.15 76.85 184.95 76.25 184.65 75.65 184.4 75.1 184.15 74.45 183.9 73.85
L 183.9 73.9
Q 183.65 73.25 183.4 72.65 183.1 72.05 182.9 71.45 182.4 70.2 182 69 181.9 68.75 181.85 68.55 181.45 67.55 181.05 66.65
L 181.1 66.7
Q 180.6 65.45 180.5 64.15 180.45 63.4 180.45 62.7 180.4 61.55 180.3 60.45
L 180.3 60.4
Q 180.2 59.3 180.1 58.2 180 57.1 179.85 56.05 179.7 54.95 179.6 53.9 179.5 53 179.45 52.15 179.4 50.85 179.3 49.6 179.2 48.35 179.05 47.15 178.95 46 178.75 44.8 178.6 44 178.45 43.2 178.2 42.1 177.95 41.05 177.6 40.05 177.25 39.05 176.85 38.05 176.45 37.1 176.05 36.2 175.7 35.25 175.35 34.45 175.1 33.7 174.65 32.45 174.15 31.3 173.7 30.15 173.15 29.05 172.05 26.85 170.7 24.9 168.35 21.5 165.35 18.7
M 138.8 39.3
Q 139.05 39.25 139.4 39.2 139.5 39.2 139.65 39.2 139.85 39.25 140.05 39.35 140.2 39.4 140.35 39.55 140.4 39.6 140.45 39.7 140.6 39.75 140.75 39.8 142 40.2 143.1 40.95 144.5 41.85 145.6 43.05 146.75 44.3 147.5 45.8 148.35 47.4 148.75 49.15 148.9 49.8 148.95 50.5 149.05 51.45 149.05 52.35 149.05 55.15 149.05 57.95 149.05 59.3 149.05 60.7 149.05 61.65 149.05 62.55 149.05 63.95 149.05 65.3 149.05 66.2 149.05 67.15 149.05 68.1 149.05 69 149.05 69.95 149.05 70.85 149.05 72.2 149.05 73.6 149.05 74.5 149.05 75.45 149.05 76.35 149.05 77.3 149.05 78.65 149.05 80.05 149.05 80.95 149.05 81.9 149.05 82.8 149.05 83.75 149.05 84.65 149.05 85.6 149.05 86.5 149.05 87.45 149.05 88.35 149.05 89.3 149.05 90.2 149.05 91.15 149.05 92.1 149.05 93 149.05 94.35 149.05 95.75 149.05 96.65 149.05 97.6 149.05 98.5 149.05 99.45 149.05 100.8 149.05 102.15 149.05 103.1 149.05 104.05 149.05 104.95 149.05 105.9 149.05 106.8 149.05 107.75 149.05 108.9 149.05 110.05 148.6 110 148.25 109.7 147.95 109.4 147.55 109.25 147.2 109.15 146.9 109 146.4 108.75 145.95 108.5 144.4 107.65 142.7 107.2 141.2 106.85 139.75 106.6
L 139.75 106.35
Q 137.75 106.15 135.7 106.15 133.15 106.15 130.7 106.45 130.1 106.5 129.5 106.6
L 129.5 107.1 128.05 107.1 128.05 107.6
Q 127 107.65 126.05 108.05 125.15 108.35 124.35 108.8 123.85 109 123.4 109.2 122.8 109.4 122.2 109.55
L 122.2 110.05
Q 122 110.1 121.8 110.15 120.25 111.2 118.8 112.25 118.3 112.6 117.8 112.95
L 117.8 113.45
Q 117.65 113.5 117.5 113.6 116.6 114.5 115.7 115.45 114.8 116.4 113.9 117.35
L 113.9 117.85 113.65 117.9
Q 113.5 118.85 112.85 119.45 112.65 119.65 112.45 119.8 112.55 120.25 112.25 120.65 111.9 121.2 111.45 121.75 111.5 122.4 111.35 122.95 111.2 123.5 111 124.1 110.1 126.05 110 128.1 110 128.3 110 128.55
L 109.5 128.55
Q 109.5 130.6 109.5 132.7 109.55 135.15 110.05 137.5 110.45 139.65 111.3 141.6 111.7 142.5 112.2 143.4 112.95 144.75 113.9 145.9
L 113.9 146.15
Q 114.2 146.45 114.35 146.9 114.45 147.2 114.55 147.45 114.75 148.05 115.25 148.25 115.3 148.4 115.4 148.55 115.45 148.7 115.6 148.85 115.65 148.95 115.75 149.1 115.8 149.3 115.85 149.55 115.95 149.55 116.05 149.6 116.15 149.6 116.2 149.65 116.25 149.7 116.3 149.75 116.3 149.8 116.35 149.85 116.25 150.15 115.95 150.1 115.25 150.2 114.6 150.1 114 150.05 113.4 150.05 110.75 150.1 108 150.15 105.25 150.2 102.6 150.15 101.25 150.15 99.95 150.2 96.65 150.2 93.25 150.15 91.25 150.1 89.25 150.1 87.3 150.1 85.35 150.05 84 150 82.7 149.95 81.4 149.95 80.1 149.9 78.8 149.85 77.5 149.8 76.2 149.75 74.9 149.7 73.6 149.65 72.3 149.6 71.875 149.5673828125 71.45 149.55
L 71.45 149.05
Q 70.6 149.2 69.85 148.95 69.4 148.8 69 148.55 68.85 148.5 68.7 148.4 68.1 148.05 67.5 147.7 66.85 147.35 66.1 147.1 66 146.95 65.95 146.8 65.15 146 64.35 145.25 63.5 144.45 62.7 143.7 62.6 142.95 62.25 142.4 62 142.05 61.7 141.75 61.65 141.35 61.5 141 61.15 140.2 61.2 139.3 61.2 139.05 61.2 138.8
L 61 138.8 60.75 50.75 61 50.75 61 50.5 61.2 50.5 61.2 47.6
Q 61.65 47.05 61.95 46.45 62.3 45.8 62.55 45.1 62.65 44.9 62.7 44.65
L 66.05 41.45 66.1 41.25
Q 67.45 40.4 68.9 39.95 69.4 39.75 69.95 39.55
L 70 39.3 72.45 39.3 72.45 38.8 138.8 39.05 138.8 39.3
M 142.9 110.1
Q 144.05 110.3 145.1 110.75 145.7 110.9 146.25 111.15 146.35 111.2 146.5 111.25 147.2 111.8 147.95 112.4 148.7 112.95 149.5 113.5 149.6 113.55 149.7 113.6
L 149.75 113.6 149.7 113.65 149.45 113.7
Q 149.35 113.7 149.3 113.8 149.25 113.85 149.25 113.95
L 149.25 114.25
Q 148.9 114.3 148.55 114.4 147.75 114.45 147 114.5 145.65 114.35 144.6 113.6 143.8 113.05 143.2 112.4 142.2 111.2 141.45 110
L 141.45 109.85
Q 142.2 109.9 142.9 110.1
M 149.85 117.15
Q 149.95 117.1 150 117.1 150.1 117.1 150.15 117.05 150.25 116.95 150.25 116.85
L 150.25 116.5
Q 151.25 115.65 152.4 116.2
L 152.35 116.2
Q 152.75 116.45 153.05 116.85 153.25 117.05 153.4 117.35 153.4 117.4 153.45 117.45 153.5 117.45 153.55 117.5
L 153.75 117.55
Q 155.45 119.75 156.6 122.25 157.3 123.9 157.8 125.65 157.8 125.7 157.85 125.75 157.9 125.8 158 125.8
L 158.05 125.85
Q 158.4 128.25 158.3 130.75
L 151.25 130.75
Q 151.45 129.65 151.3 128.5 151.2 127.7 150.75 127.05 150.65 125 150.1 123 150 122.55 149.8 122.2 149.35 121.2 149.25 120.25 149.25 120.2 149.2 120.15 149.15 120.1 149.1 120.05
L 148.9 120
Q 148.4 118.95 148.3 117.95 149 117.5 149.85 117.15
M 142.25 114.3
Q 142.5 114.7 142.65 115.2 142.95 116.25 142.3 117.05 142 117.4 141.65 117.85 141.55 117.95 141.55 118.1 139.1 118.65 136.6 118.6
L 136.6 109.85 137.05 109.95 137.1 110.1
Q 137.1 110.15 137.15 110.2 137.2 110.25 137.25 110.25 139.6 111 141.2 112.85 141.85 113.55 142.25 114.3
M 145.5 119.6
Q 145.9 120.2 146.25 120.85 146.85 121.9 147.3 123.1 147.75 124.3 148.05 125.65 148.05 125.7 148.1 125.75 148.15 125.8 148.2 125.85
L 148.3 125.85 148.3 128.55
Q 148.3 128.65 148.35 128.75 148.4 128.8 148.5 128.8
L 148.6 128.85
Q 148.7 129.25 148.8 129.7 148.85 130.1 148.65 130.4 148.5 130.6 148.3 130.65
L 148.35 130.65
Q 147.95 130.75 147.55 130.75 144.2 130.75 140.9 130.75 138.75 130.75 136.6 130.75
L 136.6 121
Q 137.3 121 138.05 121 139.3 121 140.6 121 141.75 120.9 142.75 120.3 142.8 120.25 142.85 120.2
L 142.85 120.05
Q 143.5 120.05 144.15 120.05 144.85 120 145.5 119.6
M 133.65 109.8
L 134.15 109.8 134.15 118.55
Q 133.05 118.55 132 118.55 131.8 118.5 131.65 118.45 131.35 118.3 131.1 118.15 131.05 118.1 130.95 118.1 129.45 118.2 128.25 117.5 127.8 117.3 127.45 117 127.2 116.75 127 116.5
L 127.05 116.45
Q 127.1 116.45 127.15 116.4 127.15 116.35 127.2 116.3
L 127.3 116.05 131.15 111.9
Q 131.2 111.8 131.2 111.7 132.45 111.35 133.25 110.35
L 133.5 110.25
Q 133.6 110.2 133.65 110.15 133.65 110.1 133.65 110.05
L 133.65 109.8
M 126.7 110.5
Q 126.7 110.45 126.75 110.4
L 126.75 110.25 128.7 110.2 128.45 110.5
Q 128.45 110.55 128.45 110.6
L 128.35 110.85
Q 128.2 110.9 128.05 111 127 112.1 125.95 113.3 125.85 113.35 125.85 113.45
L 125.85 113.75 125.75 113.8
Q 125.65 113.85 125.6 113.9 125.5 114.05 125.4 114.2 125.1 114.6 124.6 114.65 124.55 114.7 124.45 114.75 124.4 114.8 124.4 114.9
L 124.25 115.6 124.2 115.65
Q 124.1 115.7 124 115.75 123.65 115.75 123.35 115.7
L 123.3 115.5
Q 123.25 115.4 123.2 115.35
L 121 113.8 121 113.65
Q 121.1 113.6 121.25 113.55
L 121.3 113.55
Q 122 113.3 122.5 112.8 122.5 112.75 122.55 112.75 122.8 112.7 122.85 112.55
L 122.85 112.5
Q 122.9 112.35 122.95 112.15
L 126.6 110.55
Q 126.65 110.5 126.7 110.5
M 125.4 119.85
Q 125.8 119.7 126.25 119.7 126.75 119.85 127.25 119.95 127.5 120.05 127.75 120.2
L 127.85 120.35
Q 127.85 120.4 127.95 120.5 128 120.5 128.05 120.5 128.7 120.45 129.25 120.4 129.65 120.5 130.1 120.7 130.3 120.75 130.45 120.85 130.5 120.9 130.55 120.9 130.6 120.9 130.7 120.95 130.75 121 130.8 121
L 134.15 121 134.15 130.5
Q 134.1484375 130.4484375 134.1 130.4 134.05 130.3 134 130.3 133.95 130.25 133.9 130.25 132.75 130.45 131.5 130.65 130.65 130.7 129.8 130.75 128.35 130.75 126.9 130.75 124.55 130.75 122.25 130.75
L 122 128.3 122.2 128.3
Q 122.3 128.3 122.35 128.25 122.45 128.2 122.45 128.1 122.5 126.9 122.75 125.75 122.95 124.65 123.4 123.6 123.9 122.45 124.3 121.3 124.45 120.85 124.4 120.35 124.8 120 125.4 119.85
M 121.95 117.65
Q 122.35 118 122.35 118.5 122.35 118.9 122.25 119.25
L 122.25 119.3
Q 122.15 119.65 122 119.95
L 122 120
Q 122 120.05 122 120.1
L 121.9 120.1
Q 121.85 120.15 121.8 120.2 121.7 120.2 121.7 120.3 121.2 122.05 120.55 123.6 120.2 124.3 120.1 125.15 120.05 126 120 126.85
L 119.75 126.85
Q 119.65 126.85 119.6 126.95 119.5 127 119.5 127.1
L 119.5 128.3 119.25 128.3
Q 119.15 128.3 119.1 128.4 119.05 128.45 119.05 128.55
L 119.05 130.05 118.65 130.1
Q 118.6 130.1 118.55 130.15 117.75 130.8 116.8 131 114.45 131.35 112.2 130.85
L 112.2 128.2
Q 113.05 127.25 113.25 126.05 113.4 125.2 113.4 124.4 113.5 124.4 113.55 124.4 113.6 124.35 113.65 124.25 113.65 124.2 113.65 124.15 113.5 123.15 114.1 122.3 115.3 120.7 116.05 118.9
L 116.05 118.85
Q 116.05 118.65 116.1 118.45
L 119.1 115.75
Q 119.25 115.85 119.4 116
L 119.4 116.05
Q 119.95 116.55 120.7 116.95 120.9 117.05 121.1 117.15 121.55 117.35 121.95 117.65
M 133.9 133.2
Q 134 133.2 134.05 133.25 134.05 133.35 134.05 133.45 134.15 134.55 134.15 135.65 134.15 136.75 134.15 137.85 134.15 138.95 134.15 140.05 134.1 141.25 134.15 142.45
L 133.9 142.45
Q 133.8 142.45 133.75 142.55 133.7 142.6 133.65 142.65
L 133.65 142.75
Q 132.4 142.95 131.15 143.2 129.95 143.35 128.75 143.5 127.65 143.65 126.6 143.8 125.7 143.85 124.85 143.95 124.75 143.8 124.7 143.65
L 124.7 143.7
Q 124.05 142.4 123.45 141.15 123.35 140.95 123.3 140.75 123.05 140.05 122.9 139.35 122.45 137.85 122.45 136.35 122.45 136.25 122.35 136.2 122.3 136.15 122.2 136.15
L 121.95 136.15 121.95 133.2
Q 122.8 133.2 123.6 133.2 125.05 133.2 126.45 133.2 127.85 133.2 129.2 133.2 130.65 133.2 132.05 133.2 133 133.2 133.9 133.2
M 123.85 148.3
L 124.45 148.3 124.6 149
Q 124.6 149.1 124.65 149.15 124.7 149.2 124.75 149.2
L 125 149.25
Q 125.35 149.8 125.8 150.3
L 125.8 150.35
Q 126.65 151.4 127.6 152.45 128.1 153.05 128.7 153.55 128.75 153.6 128.8 153.65
L 128.85 153.65 129.2 154.3
Q 127.85 154.2 126.55 153.65
L 126.5 153.65
Q 125.95 153.45 125.3 153.25
L 125.3 153.1
Q 125.25 153.05 125.25 153 125.2 153 125.15 152.95 124.75 152.8 124.35 152.65 123.2 152.15 122.35 151.3 122.3 151.25 122.25 151.25 122.1 151.25 122.05 151.25 122 151.2 121.95 151.2 121.95 151.15 121.9 151.15 121.65 151 121.45 150.85 121.4 150.8 121.4 150.75 121.4 150.55 121.3 150.45 121.2 150.25 121.1 150.1
L 123.7 148.6
Q 123.75 148.55 123.8 148.45
L 123.85 148.3
M 127.45 148.05
Q 127.25 147.85 127.1 147.7 126.95 147.6 126.85 147.5
L 126.85 146.85 130 146.35
Q 130.1 146.35 130.15 146.3 130.25 146.25 130.25 146.15
L 130.25 145.9 131 145.9
Q 131.05 145.9 131.15 145.8 131.2 145.75 131.2 145.65
L 131.2 145.4 133.7 145.4
Q 134.25 147.85 134.3 150.35 134.3 152.15 134.15 153.9 134.15 154 134.15 154.1 134.1 154.1 134.1 154.05 133.8 153.9 133.55 153.75 133.55 153.7 133.5 153.7 133.35 153.65 133.25 153.55 132.15 152.7 131 151.85 130.6 151.55 130.2 151.35 130.15 151.25 130.15 151.2
L 130.1 151.2
Q 129.65 150.65 129.15 150.2 128.7 149.8 128.3 149.45
L 128.3 149.05
Q 128.3 149 128.25 148.9 128.2 148.85 128.1 148.85
L 127.9 148.75
Q 127.65 148.4 127.45 148.1
L 127.45 148.05
M 136.6 146.25
Q 136.6 145.8 136.6 145.4
L 139.5 145.65
Q 139.5 145.75 139.6 145.8 139.65 145.9 139.75 145.9
L 141.65 145.9
Q 141.85 146.05 142.05 146.25 142.9 146.8 143.9 147.05 143.9 147.25 143.85 147.4
L 143.8 147.4
Q 143.35 148.3 142.6 148.95 142.35 149.15 142.05 149.35 142 149.35 142 149.45 141.95 149.5 141.95 149.55
L 141.95 149.85 141.8 149.95
Q 141.7 149.95 141.65 150 141.4 150.35 141.1 150.7 140.25 151.65 139.15 152.25 139.1 152.25 139.05 152.35 139.05 152.4 139.05 152.45
L 139.05 152.8 139 152.8
Q 138.9 152.8 138.85 152.85 138.8 152.9 138.8 152.95 138.75 153.05 138.7 153.15
L 138.65 153.2
Q 138.5 153.4 138.35 153.55 138.1 153.6 137.9 153.7 137.6 153.7 137.3 153.7 137.25 153.7 137.15 153.75 137.1 153.8 137.1 153.85
L 137.05 154.05
Q 137 154.1 136.95 154.15 136.85 154.15 136.8 154.2 136.7 154.2 136.65 154.2
L 136.6 154.2
Q 136.5 153.8 136.5 153.45 136.6 152.4 136.6 151.4 136.55 148.85 136.6 146.25
M 141.7 143.2
L 136.6 143 136.6 133.2 148.8 133.2
Q 148.85 133.6 148.9 134 148.9 134.4 148.9 134.8 148.85 135.15 148.75 135.5 148.65 135.75 148.5 136 148.45 136.15 148.35 136.2 148.3 136.25 148.3 136.35 148.25 136.95 148.2 137.55 148.15 138.15 148.05 138.75 147.85 139.3 147.65 139.8 147.45 140.25 147.2 140.7 147.05 140.9 146.9 141.1 146.85 141.15 146.85 141.25 146.8 141.7 146.7 142.2
L 146.75 142.2
Q 146.65 142.55 146.4 142.9 146.2 143.2 145.95 143.5 145.85 143.6 145.85 143.7
L 145.85 144.35 141.95 143.5 141.9 143.4
Q 141.9 143.3 141.85 143.25 141.75 143.2 141.7 143.2
M 151.35 133.9
Q 151.3 133.55 151.25 133.2
L 158.5 133.2 158.05 138.6 158 138.65
Q 157.95 138.65 157.9 138.7 157.8 138.75 157.8 138.85 157.05 141.7 155.2 143.95 154.95 144.2 154.7 144.5 154.65 144.55 154.65 144.65
L 154.65 144.95
Q 154.55 144.95 154.45 145 154.4 145.1 154.4 145.2 154.4 145.75 153.95 146.1 153.9 146.1 153.9 146.15 153.8 146.25 153.6 146.25 153.55 146.25 153.55 146.3 153.45 146.35 153.35 146.35 153.3 146.4 153.25 146.45 153.15 146.5 153.15 146.6
L 153.15 147.4
Q 152.65 147.65 152.2 147.95
L 152.2 148
Q 152 148.15 151.75 148.25 151.35 148.1 151.05 147.95 150.6 147.7 150.2 147.45
L 150.15 147.25
Q 150.1 147.15 150.05 147.1 149.5 146.85 149.05 146.55 148.65 146.3 148.3 146.05
L 148.3 145.25
Q 148.75 144.8 148.8 144.2 148.8 144 148.8 143.8 150.45 141.6 150.65 138.85 150.75 137.8 150.75 136.85 150.75 136.4 150.75 136 151.55 135.15 151.35 133.9
M 146.75 148.25
L 146.8 148.25
Q 146.85 148.25 146.85 148.3 146.95 148.3 147 148.4
L 147.1 148.6
Q 147.1 148.65 147.15 148.7 147.2 148.75 147.3 148.75
L 147.6 148.8
Q 147.9 149.25 148 149.95 148.1 150.95 147.5 151.75 147.2 152.2 146.85 152.55 145.75 153.4 144.35 153.65
L 144.3 153.65
Q 142.95 154 141.4 154.15 141.35 154.15 141.3 154.15 142 153.7 142.6 153.1 142.95 152.75 143.3 152.35 143.4 152.3 143.4 152.2
L 143.4 152.1
Q 144.65 150.95 145.55 149.55 145.95 149 146.25 148.4 146.25 148.35 146.3 148.3 146.45 148.25 146.6 148.25 146.7 148.25 146.75 148.25
M 112.2 133.2
Q 112.5 133.1 112.85 133.05 114.2 132.8 115.6 132.8 116.85 132.8 118 133.5 119.15 134.2 119.45 135.5
L 119.45 135.45
Q 119.8 137.1 120.05 138.75 120.3 140.1 120.7 141.4 121.45 144 122.35 146.45 121.8 146.7 121.25 146.95 119.95 147.5 118.7 148.25
L 118.7 148.3
Q 118.25 147.7 117.85 147.1 116.65 145.4 115.1 144.05 114.8 142.4 113.65 141.15 113.65 140.95 113.6 140.75 113.35 139.65 113 138.6 112.65 137.7 112.2 136.8
L 112.2 133.2
M 73.4 131.5
L 73.4 135.9 107.3 135.85
Q 107.4 134.75 107.45 133.65 107.55 132.6 107.55 131.5
L 73.4 131.5
M 75.65 119.75
Q 74.55 119.75 73.4 119.8 73.4 120.05 73.4 120.25 73.3 120.75 73.2 121.25 73.05 122.2 73.4 123.15 73.6 123.7 74.15 123.95 74.75 124.25 75.45 124.25 75.9 124.2 76.35 124.2 77.35 124.2 78.4 124.2 79.4 124.2 80.4 124.2 81.4 124.2 82.4 124.2 83.4 124.2 84.4 124.2 85.4 124.2 86.45 124.2 87.45 124.2 88.45 124.2 89.45 124.2 90.45 124.2 91.45 124.15 92.45 124.15 93.45 124.15 94.5 124.1 95.5 124.1 96.5 124.1 97.5 124.1 98.5 124.1 99.5 124.1 100.5 124.1 101.5 124.05 102.55 124.05 103.55 124.05 104.55 124 105.55 124 106.55 124 107.55 123.95 108.55 123.95
L 108.55 122.7
Q 108.7 122.55 108.85 122.4 109.1 122.1 109.25 121.65 109.4 121.2 109.5 120.75
L 109.5 120.5
Q 108.15 120.5 106.8 120.5 105.85 120.4 104.9 120.35 103.9 120.25 102.9 120.2 101.9 120.15 100.95 120.1 99.9 120 98.9 119.95 97.9 119.9 96.9 119.9 95.85 119.85 94.85 119.8 93.8 119.75 92.8 119.7 91.75 119.65 90.7 119.65 89.65 119.65 88.6 119.65 87.55 119.6 86.5 119.6 85.4 119.6 84.35 119.6 83.25 119.6 82.2 119.6 81.1 119.65 80.05 119.65 78.95 119.65 77.85 119.7 76.75 119.7 75.65 119.75
M 76.85 100.85
Q 78.55 100.9 80.25 100.95 82 101 83.7 101.05 85.45 101.05 87.15 101.1 88.2 101.1 89.3 101.15 90.1 101.15 90.95 101.15 92.35 101.15 93.75 101.2 95.15 101.2 96.6 101.25 98.05 101.25 99.45 101.25 100.9 101.25 102.3 101.25 103.75 101.25 105.2 101.25 106.65 101.25 108.1 101.25 109.55 101.25 111 101.25 112.45 101.25 113.95 101.25 115.4 101.25 116.9 101.25 118.35 101.25 119.85 101.25 121.3 101.25 122.8 101.25 124.3 101.2 125.8 101.2 127.3 101.15 128.8 101.15 130.3 101.15 131.8 101.15 133.3 101.1 134.85 101.05 135.6 101.05 136.35 101
L 136.35 96.6 73.4 96.35 73.4 100.75
Q 75.1 100.8 76.85 100.85
M 73.4 108.1
Q 73.35 108.55 73.3 109.1 73.25 109.7 73.25 110.3 73.25 110.9 73.55 111.45 73.75 111.9 74.2 112.2 74.6 112.35 75 112.5 75.45 112.45 75.85 112.45 77.05 112.5 78.25 112.6 79.4 112.65 80.6 112.7 81.8 112.75 83 112.8 84.2 112.8 85.4 112.85 86.6 112.85 87.85 112.9 89.05 112.95 90.2 112.95 91.45 112.95 92.65 113 93.85 113 95.05 113 96.3 113 97.55 113 98.75 113 100 113.05 103.05 113.05 106.15 113 108 112.95 109.9 112.9 112.45 112.85 114.9 112.7
L 114.9 112.45 115.25 112.35 115.35 112
Q 116.25 111.15 117.15 110.35 117.25 110.3 117.3 110.25
L 117.3 110.05
Q 117.55 109.95 117.8 109.9 118 109.8 118.2 109.65 118.4 109.6 118.55 109.45 118.75 109.3 118.9 109.15 119 109.15 119.05 109.1
L 119.5 109.05 119.25 109.05 119.25 108.8 115.7 108.8
Q 114.45 108.7 113.2 108.65 111.95 108.55 110.65 108.5 109.4 108.4 108.1 108.35 106.85 108.3 105.55 108.25 104.25 108.2 103 108.15 101.7 108.15 100.4 108.1 99.05 108.05 97.8 108 96.45 107.95 95.1 107.95 93.8 107.95 92.5 107.95 91.15 107.9 89.8 107.9 88.45 107.9 87.1 107.9 85.75 107.9 84.4 107.9 83.05 107.95 81.7 107.95 80.3 107.95 78.95 108 77.55 108 76.2 108.05 74.8 108.05 73.4 108.1
M 108.55 89.05
Q 109.4 89.1 110.25 89.15 111.05 89.2 111.9 89.3 112.75 89.3 113.6 89.35 114.45 89.4 115.3 89.4 116.15 89.45 117 89.5 117.85 89.5 118.7 89.5 119.55 89.55 120.45 89.55 121.3 89.55 122.15 89.55 123.05 89.55 123.9 89.55 124.8 89.6 125.65 89.6 126.55 89.6 127.45 89.55 128.3 89.55 129.2 89.55 130.1 89.5 131 89.5 131.9 89.5 132.75 89.45 133.65 89.4 134.55 89.4 135.45 89.35 136.35 89.3
L 136.35 84.9 108.55 84.65 108.55 89.05
M 113.8 77.85
Q 114.65 77.85 115.5 77.85 116.4 77.85 117.25 77.85 118.1 77.85 119 77.85 119.85 77.85 120.75 77.8 121.6 77.8 122.45 77.8 123.3 77.8 124.2 77.8 125.05 77.75 125.95 77.75 126.85 77.75 127.7 77.75 128.55 77.75 129.4 77.75 130.3 77.7 131.15 77.7 132.05 77.7 132.9 77.65 133.75 77.65 134.65 77.6 135.5 77.6 136.35 77.6
L 136.35 73.2 108.55 72.95 108.55 77.85
Q 109.4 77.85 110.3 77.85 111.15 77.85 112.05 77.85 112.95 77.85 113.8 77.85
M 92.95 77.35
L 92.95 77.85
Q 92.8 77.85 92.7 77.9 92.2 78.15 91.75 78.5 90.25 79.55 88.55 79.8 86.85 79.8 85.1 79.8
L 85.05 79.5
Q 84.3 79.2 83.55 78.9 81.45 77.95 79.75 76.35 79.55 76.4 79.35 76.5 77.6 77.35 75.8 78.05 73.85 78.75 71.95 79.3
L 71.95 79.5 70.5 81.25 70.5 82.2 70 82.2
Q 70.15 82.5 70.35 82.8 70.65 83.35 71.1 83.85 71.5 84.3 72 84.7 72.5 85.1 73.1 85.35 73.75 85.7 74.45 85.9 75.2 86.15 76 86.3 76.4 86.35 76.85 86.4 77.3 86.45 77.8 86.5 80.05 86.6 82.4 86.3 84.6 86.15 86.9 86 88.4 85.9 89.9 85.8 91.3 85.65 92.8 85.55 95.65 85.35 98.55 85.1 101.4 84.95 104.15 84.65
L 104.2 82.45 103.65 82.2
Q 103.6 82 103.55 81.8 103.05 80.4 102.05 79.35 101 78.3 99.5 77.9 98.4 77.6 97.3 77.35 97.1 77.25 97 77.15 96.1 76.4 95 76.4 93.8 76.6 92.95 77.35
M 94.4 52.95
Q 94.15 52.9 93.95 52.85 92.95 52.4 91.9 52.15 91.15 52 90.4 52 88.7 52 87.05 52 84.9 52 82.7 52
L 82.6 52.25 79.25 53.45
Q 79.2 53.65 79.1 53.8 78.45 54.85 77.8 55.9 77.8 56.1 77.85 56.35 77.95 57.3 77.95 58.25 77.95 59.05 77.9 59.85 77.8 61.25 76.85 62.2 76.85 62.85 76.85 63.45 76.85 64.3 77.1 65.05 78.05 67.45 79 69.95 79.4 70.95 79.75 72 80.6 72.75 81.45 73.5 82.25 74.25 83 75.05 83.1 75.2 83.15 75.4
L 85 76.1 85.1 76.35
Q 86.85 76.35 88.55 76.35 89.2 76.15 89.9 75.9 91.15 75.35 92.2 74.4 93.65 73.2 94.55 71.6
L 94.9 71.5
Q 95.35 70.25 95.9 69.05 96.5 67.7 96.85 66.1
L 97.1 66.05
Q 97.3 65.65 97.45 65.3 97.9 64.4 97.85 63.35 97.75 62.1 96.85 61.25 96.9 60.1 96.85 58.95 96.8 58.1 96.7 57.25 96.55 55.75 95.85 54.4
L 95.5 54.3 94.4 52.95
M 108.55 66.1
Q 109.1 66.1 109.65 66.1 110.2 66.1 110.8 66.1 111.35 66.1 111.9 66.1 112.45 66.1 113.05 66.1 113.4 66.25 113.8 66.4 114.2 66.45 114.65 66.55 115.05 66.65 115.55 66.75 116 66.75 116.45 66.8 117 66.8 117.5 66.8 118 66.8 118.55 66.8 119.1 66.75 119.7 66.7 120.25 66.65 120.85 66.6 121.5 66.5 122.15 66.45 122.85 66.35 123.5 66.3 124.15 66.2 124.8 66.15 126.1 66.1 127.45 66.05 128.7 66.05 130 66.05 131.95 66 133.8 65.95 135.05 65.9 136.35 65.9
L 136.35 61.5 108.55 61.25 108.55 66.1 Z"/>
</g>
</defs>

<g transform="matrix( 1, 0, 0, 1, 0,0) ">
<use xlink:href="#Layer0_0_FILL"/>
</g>
</svg>
